<mxfile host="app.diagrams.net" modified="2023-10-05T19:18:43.798Z" agent="Mozilla/5.0 (Windows NT 10.0; Win64; x64) AppleWebKit/537.36 (KHTML, like Gecko) Chrome/117.0.0.0 Safari/537.36" version="21.6.8" etag="rDMaYkruwxaE-M3ZFiOS" type="github">
  <diagram name="Сторінка-1" id="ZPH82jpIT6Rn6G8vtjn8">
    <mxGraphModel>
      <root>
        <mxCell id="0" />
        <mxCell id="1" parent="0" />
      </root>
    </mxGraphModel>
  </diagram>
</mxfile>
